<mxfile host="app.diagrams.net" modified="2024-02-07T04:47:19.214Z" agent="Mozilla/5.0 (Windows NT 10.0; Win64; x64) AppleWebKit/537.36 (KHTML, like Gecko) Chrome/121.0.0.0 Safari/537.36" etag="bW1J_t0BFvbKyblmPv_8" version="23.1.1" type="github">
  <diagram id="C5RBs43oDa-KdzZeNtuy" name="Page-1">
    <mxGraphModel dx="978" dy="1651" grid="1" gridSize="10" guides="1" tooltips="1" connect="1" arrows="1" fold="1" page="1" pageScale="1" pageWidth="827" pageHeight="1169" math="0" shadow="1">
      <root>
        <mxCell id="WIyWlLk6GJQsqaUBKTNV-0" />
        <mxCell id="WIyWlLk6GJQsqaUBKTNV-1" parent="WIyWlLk6GJQsqaUBKTNV-0" />
        <mxCell id="pBlrWGh7TpLZCddfQkv4-0" value="&lt;b&gt;Input Number&amp;nbsp;&lt;/b&gt;" style="rounded=0;whiteSpace=wrap;html=1;" parent="WIyWlLk6GJQsqaUBKTNV-1" vertex="1">
          <mxGeometry x="40" y="132.5" width="120" height="55" as="geometry" />
        </mxCell>
        <mxCell id="pBlrWGh7TpLZCddfQkv4-1" value="" style="endArrow=classic;html=1;rounded=0;" parent="WIyWlLk6GJQsqaUBKTNV-1" edge="1">
          <mxGeometry width="50" height="50" relative="1" as="geometry">
            <mxPoint x="180" y="160.41" as="sourcePoint" />
            <mxPoint x="250" y="160.41" as="targetPoint" />
            <Array as="points">
              <mxPoint x="210" y="160" />
            </Array>
          </mxGeometry>
        </mxCell>
        <mxCell id="pBlrWGh7TpLZCddfQkv4-7" value="" style="shape=curlyBracket;whiteSpace=wrap;html=1;rounded=1;labelPosition=left;verticalLabelPosition=middle;align=right;verticalAlign=middle;" parent="WIyWlLk6GJQsqaUBKTNV-1" vertex="1">
          <mxGeometry x="270" y="40" width="20" height="240" as="geometry" />
        </mxCell>
        <mxCell id="pBlrWGh7TpLZCddfQkv4-10" value="" style="shape=curlyBracket;whiteSpace=wrap;html=1;rounded=1;flipH=1;labelPosition=right;verticalLabelPosition=middle;align=left;verticalAlign=middle;size=0.5;" parent="WIyWlLk6GJQsqaUBKTNV-1" vertex="1">
          <mxGeometry x="810" y="40" width="20" height="240" as="geometry" />
        </mxCell>
        <mxCell id="pBlrWGh7TpLZCddfQkv4-13" value="" style="edgeStyle=orthogonalEdgeStyle;rounded=0;orthogonalLoop=1;jettySize=auto;html=1;" parent="WIyWlLk6GJQsqaUBKTNV-1" source="pBlrWGh7TpLZCddfQkv4-11" target="pBlrWGh7TpLZCddfQkv4-12" edge="1">
          <mxGeometry relative="1" as="geometry" />
        </mxCell>
        <mxCell id="pBlrWGh7TpLZCddfQkv4-11" value="If Not a number&amp;nbsp;" style="shape=ext;double=1;rounded=1;whiteSpace=wrap;html=1;" parent="WIyWlLk6GJQsqaUBKTNV-1" vertex="1">
          <mxGeometry x="320" y="60" width="110" height="30" as="geometry" />
        </mxCell>
        <mxCell id="pBlrWGh7TpLZCddfQkv4-12" value="No Number&amp;nbsp;" style="shape=ext;double=1;rounded=1;whiteSpace=wrap;html=1;" parent="WIyWlLk6GJQsqaUBKTNV-1" vertex="1">
          <mxGeometry x="480" y="60" width="110" height="30" as="geometry" />
        </mxCell>
        <mxCell id="pBlrWGh7TpLZCddfQkv4-15" value="Condition&amp;nbsp; &amp;nbsp; &amp;nbsp; &amp;nbsp; &amp;nbsp; &amp;nbsp; &amp;nbsp; &amp;nbsp; &amp;nbsp; &amp;nbsp; &amp;nbsp; &amp;nbsp; &amp;nbsp; &amp;nbsp; &amp;nbsp; &amp;nbsp; &amp;nbsp; &amp;nbsp; &amp;nbsp; &amp;nbsp; &amp;nbsp; &amp;nbsp; &amp;nbsp;Message&amp;nbsp;" style="shape=partialRectangle;whiteSpace=wrap;html=1;left=0;right=0;fillColor=none;" parent="WIyWlLk6GJQsqaUBKTNV-1" vertex="1">
          <mxGeometry x="315" y="-20" width="290" height="40" as="geometry" />
        </mxCell>
        <mxCell id="pBlrWGh7TpLZCddfQkv4-19" value="" style="edgeStyle=orthogonalEdgeStyle;rounded=0;orthogonalLoop=1;jettySize=auto;html=1;" parent="WIyWlLk6GJQsqaUBKTNV-1" source="pBlrWGh7TpLZCddfQkv4-16" target="pBlrWGh7TpLZCddfQkv4-18" edge="1">
          <mxGeometry relative="1" as="geometry" />
        </mxCell>
        <mxCell id="pBlrWGh7TpLZCddfQkv4-16" value="&lt;font style=&quot;font-size: 8px;&quot;&gt;number === secretNumber&amp;nbsp;&lt;/font&gt;" style="shape=ext;double=1;rounded=1;whiteSpace=wrap;html=1;" parent="WIyWlLk6GJQsqaUBKTNV-1" vertex="1">
          <mxGeometry x="320" y="110" width="110" height="30" as="geometry" />
        </mxCell>
        <mxCell id="pBlrWGh7TpLZCddfQkv4-21" value="" style="edgeStyle=orthogonalEdgeStyle;rounded=0;orthogonalLoop=1;jettySize=auto;html=1;" parent="WIyWlLk6GJQsqaUBKTNV-1" source="pBlrWGh7TpLZCddfQkv4-18" target="pBlrWGh7TpLZCddfQkv4-20" edge="1">
          <mxGeometry relative="1" as="geometry" />
        </mxCell>
        <mxCell id="pBlrWGh7TpLZCddfQkv4-18" value="Correct Number&amp;nbsp;" style="shape=ext;double=1;rounded=1;whiteSpace=wrap;html=1;" parent="WIyWlLk6GJQsqaUBKTNV-1" vertex="1">
          <mxGeometry x="480" y="110" width="110" height="30" as="geometry" />
        </mxCell>
        <mxCell id="pBlrWGh7TpLZCddfQkv4-20" value="&lt;font style=&quot;font-size: 11px;&quot;&gt;1. Change Background&lt;br&gt;2. Set High scores&amp;nbsp; &amp;nbsp; &amp;nbsp;&amp;nbsp;&lt;br&gt;3. Update the Q. mark&amp;nbsp;&lt;br&gt;&lt;/font&gt;" style="whiteSpace=wrap;html=1;rounded=1;" parent="WIyWlLk6GJQsqaUBKTNV-1" vertex="1">
          <mxGeometry x="660" y="91.25" width="130" height="67.5" as="geometry" />
        </mxCell>
        <mxCell id="pBlrWGh7TpLZCddfQkv4-24" value="" style="edgeStyle=orthogonalEdgeStyle;rounded=0;orthogonalLoop=1;jettySize=auto;html=1;" parent="WIyWlLk6GJQsqaUBKTNV-1" source="pBlrWGh7TpLZCddfQkv4-22" target="pBlrWGh7TpLZCddfQkv4-23" edge="1">
          <mxGeometry relative="1" as="geometry" />
        </mxCell>
        <mxCell id="pBlrWGh7TpLZCddfQkv4-31" value="" style="edgeStyle=orthogonalEdgeStyle;rounded=0;orthogonalLoop=1;jettySize=auto;html=1;" parent="WIyWlLk6GJQsqaUBKTNV-1" source="pBlrWGh7TpLZCddfQkv4-22" target="pBlrWGh7TpLZCddfQkv4-30" edge="1">
          <mxGeometry relative="1" as="geometry" />
        </mxCell>
        <mxCell id="pBlrWGh7TpLZCddfQkv4-22" value="&lt;font style=&quot;font-size: 10px;&quot;&gt;number = High / Low&amp;nbsp;&lt;/font&gt;" style="shape=ext;double=1;rounded=1;whiteSpace=wrap;html=1;" parent="WIyWlLk6GJQsqaUBKTNV-1" vertex="1">
          <mxGeometry x="320" y="175" width="110" height="30" as="geometry" />
        </mxCell>
        <mxCell id="pBlrWGh7TpLZCddfQkv4-23" value="&lt;font style=&quot;font-size: 11px;&quot;&gt;Too High &lt;/font&gt;&lt;font style=&quot;font-size: 10px;&quot;&gt;/ Too Low&amp;nbsp;&lt;/font&gt;" style="shape=ext;double=1;rounded=1;whiteSpace=wrap;html=1;" parent="WIyWlLk6GJQsqaUBKTNV-1" vertex="1">
          <mxGeometry x="480" y="175" width="110" height="30" as="geometry" />
        </mxCell>
        <mxCell id="pBlrWGh7TpLZCddfQkv4-37" value="" style="edgeStyle=orthogonalEdgeStyle;rounded=0;orthogonalLoop=1;jettySize=auto;html=1;" parent="WIyWlLk6GJQsqaUBKTNV-1" source="pBlrWGh7TpLZCddfQkv4-30" target="pBlrWGh7TpLZCddfQkv4-23" edge="1">
          <mxGeometry relative="1" as="geometry" />
        </mxCell>
        <mxCell id="pBlrWGh7TpLZCddfQkv4-30" value="&lt;font style=&quot;font-size: 10px;&quot;&gt;Number = Not between 1 to 20&amp;nbsp;&lt;/font&gt;" style="shape=ext;double=1;rounded=1;whiteSpace=wrap;html=1;" parent="WIyWlLk6GJQsqaUBKTNV-1" vertex="1">
          <mxGeometry x="315" y="240" width="120" height="30" as="geometry" />
        </mxCell>
        <mxCell id="pBlrWGh7TpLZCddfQkv4-41" value="" style="shape=flexArrow;endArrow=classic;html=1;rounded=0;" parent="WIyWlLk6GJQsqaUBKTNV-1" edge="1">
          <mxGeometry width="50" height="50" relative="1" as="geometry">
            <mxPoint x="509.17" y="270" as="sourcePoint" />
            <mxPoint x="509.17" y="350" as="targetPoint" />
          </mxGeometry>
        </mxCell>
        <mxCell id="pBlrWGh7TpLZCddfQkv4-42" value="&lt;font style=&quot;font-size: 18px;&quot;&gt;Score Update&lt;/font&gt;" style="rounded=1;whiteSpace=wrap;html=1;" parent="WIyWlLk6GJQsqaUBKTNV-1" vertex="1">
          <mxGeometry x="435" y="360" width="150" height="60" as="geometry" />
        </mxCell>
        <mxCell id="pBlrWGh7TpLZCddfQkv4-43" value="" style="shape=flexArrow;endArrow=classic;html=1;rounded=0;" parent="WIyWlLk6GJQsqaUBKTNV-1" edge="1">
          <mxGeometry width="50" height="50" relative="1" as="geometry">
            <mxPoint x="840" y="159.17" as="sourcePoint" />
            <mxPoint x="940" y="160" as="targetPoint" />
          </mxGeometry>
        </mxCell>
        <mxCell id="pBlrWGh7TpLZCddfQkv4-45" value="&lt;font style=&quot;font-size: 18px;&quot;&gt;Check on Enter Key&amp;nbsp;&lt;/font&gt;" style="rounded=1;whiteSpace=wrap;html=1;" parent="WIyWlLk6GJQsqaUBKTNV-1" vertex="1">
          <mxGeometry x="950" y="127.5" width="180" height="60" as="geometry" />
        </mxCell>
        <mxCell id="S8Pax957CWkKXPev5o63-0" value="&lt;font style=&quot;font-size: 24px;&quot;&gt;Again&amp;nbsp;&lt;/font&gt;" style="rounded=0;whiteSpace=wrap;html=1;" vertex="1" parent="WIyWlLk6GJQsqaUBKTNV-1">
          <mxGeometry x="40" y="520" width="120" height="60" as="geometry" />
        </mxCell>
        <mxCell id="S8Pax957CWkKXPev5o63-1" value="" style="endArrow=classic;html=1;rounded=0;" edge="1" parent="WIyWlLk6GJQsqaUBKTNV-1">
          <mxGeometry width="50" height="50" relative="1" as="geometry">
            <mxPoint x="160" y="549.44" as="sourcePoint" />
            <mxPoint x="240" y="549.44" as="targetPoint" />
          </mxGeometry>
        </mxCell>
        <mxCell id="S8Pax957CWkKXPev5o63-2" value="&lt;font style=&quot;&quot;&gt;&lt;span style=&quot;font-size: 24px;&quot;&gt;Reset&amp;nbsp; &amp;nbsp; &amp;nbsp; &amp;nbsp; &amp;nbsp; &amp;nbsp; &amp;nbsp; &amp;nbsp; &amp;nbsp; &amp;nbsp; &amp;nbsp; &amp;nbsp; &amp;nbsp; &amp;nbsp; &amp;nbsp; &amp;nbsp; &amp;nbsp;&lt;/span&gt;&lt;br&gt;&lt;font style=&quot;font-size: 18px;&quot;&gt;1. score&amp;nbsp; &amp;nbsp; &amp;nbsp; &amp;nbsp; &amp;nbsp; &amp;nbsp; &amp;nbsp; &amp;nbsp; &amp;nbsp; &amp;nbsp;&lt;br&gt;2. background&amp;nbsp; &amp;nbsp; &amp;nbsp; &amp;nbsp; &amp;nbsp;&lt;br&gt;3. secret Number&amp;nbsp; &amp;nbsp;&amp;nbsp;&lt;br&gt;4. Q mark&amp;nbsp; &amp;nbsp; &amp;nbsp; &amp;nbsp; &amp;nbsp; &amp;nbsp; &amp;nbsp; &amp;nbsp;&amp;nbsp;&lt;br&gt;5. message&amp;nbsp; &amp;nbsp; &amp;nbsp; &amp;nbsp; &amp;nbsp; &amp;nbsp; &amp;nbsp;&lt;br&gt;&lt;/font&gt;&lt;br&gt;&lt;/font&gt;" style="rounded=1;whiteSpace=wrap;html=1;" vertex="1" parent="WIyWlLk6GJQsqaUBKTNV-1">
          <mxGeometry x="250" y="465" width="350" height="170" as="geometry" />
        </mxCell>
      </root>
    </mxGraphModel>
  </diagram>
</mxfile>
